C:\Users\nbianco\repos\ankle-perturb-sim\results\experiments\subject01\walk2\expdata\ground_reaction_unfiltered.mot
version=1
nRows=43
nColumns=19
inDegrees=no
endheader
time	ground_force_r_vx	ground_force_r_vy	ground_force_r_vz	ground_force_r_px	ground_force_r_py	ground_force_r_pz	ground_force_l_vx	ground_force_l_vy	ground_force_l_vz	ground_force_l_px	ground_force_l_py	ground_force_l_pz	ground_torque_r_x	ground_torque_r_y	ground_torque_r_z	ground_torque_l_x	ground_torque_l_y	ground_torque_l_z
2.905000	117.500771	537.596090	-18.138698	0.643454	0.000000	-0.428071	-37.813526	313.188848	-5.533912	1.119607	0.000000	-0.563666	0.000000	1.815890	0.000000	0.000000	1.473579	0.000000
2.906000	117.048560	531.166738	-17.713112	0.642321	0.000000	-0.428017	-39.951721	318.201653	-4.487543	1.121345	0.000000	-0.564463	0.000000	1.851591	0.000000	0.000000	1.551029	0.000000
2.907000	116.587839	524.714269	-17.227360	0.641188	0.000000	-0.427954	-41.902468	323.460026	-3.483564	1.123068	0.000000	-0.565314	0.000000	1.883123	0.000000	0.000000	1.621882	0.000000
2.908000	116.117607	518.240815	-16.677658	0.640060	0.000000	-0.427884	-43.671308	328.968153	-2.531268	1.124745	0.000000	-0.566203	0.000000	1.910083	0.000000	0.000000	1.685448	0.000000
2.909000	115.636521	511.748002	-16.061250	0.638941	0.000000	-0.427808	-45.266348	334.727631	-1.638164	1.126347	0.000000	-0.567118	0.000000	1.932156	0.000000	0.000000	1.741160	0.000000
2.910000	115.142935	505.236965	-15.376488	0.637835	0.000000	-0.427728	-46.698016	340.737563	-0.809833	1.127853	0.000000	-0.568046	0.000000	1.949125	0.000000	0.000000	1.788581	0.000000
2.911000	114.634944	498.708368	-14.622887	0.636749	0.000000	-0.427645	-47.978797	346.994687	-0.049823	1.129244	0.000000	-0.568973	0.000000	1.960873	0.000000	0.000000	1.827407	0.000000
2.912000	114.110432	492.162434	-13.801160	0.635686	0.000000	-0.427563	-49.122938	353.493530	0.640399	1.130505	0.000000	-0.569891	0.000000	1.967388	0.000000	0.000000	1.857476	0.000000
2.913000	113.567127	485.598987	-12.913231	0.634651	0.000000	-0.427482	-50.146145	360.226580	1.261447	1.131624	0.000000	-0.570787	0.000000	1.968766	0.000000	0.000000	1.878762	0.000000
2.914000	113.002650	479.017498	-11.962213	0.633651	0.000000	-0.427407	-51.065265	367.184481	1.815957	1.132592	0.000000	-0.571653	0.000000	1.965208	0.000000	0.000000	1.891376	0.000000
2.915000	112.414572	472.417129	-10.952370	0.632689	0.000000	-0.427338	-51.897958	374.356236	2.308488	1.133405	0.000000	-0.572479	0.000000	1.957020	0.000000	0.000000	1.895562	0.000000
2.916000	111.800466	465.796795	-9.889049	0.631771	0.000000	-0.427280	-52.662370	381.729421	2.745360	1.134057	0.000000	-0.573258	0.000000	1.944609	0.000000	0.000000	1.891691	0.000000
2.917000	111.157953	459.155219	-8.778592	0.630900	0.000000	-0.427234	-53.376810	389.290389	3.134458	1.134549	0.000000	-0.573981	0.000000	1.928472	0.000000	0.000000	1.880249	0.000000
2.918000	110.484752	452.490992	-7.628220	0.630081	0.000000	-0.427204	-54.059434	397.024483	3.484990	1.134882	0.000000	-0.574643	0.000000	1.909193	0.000000	0.000000	1.861830	0.000000
2.919000	109.778719	445.802632	-6.445903	0.629317	0.000000	-0.427190	-54.727938	404.916231	3.807212	1.135060	0.000000	-0.575239	0.000000	1.887430	0.000000	0.000000	1.837119	0.000000
2.920000	109.037883	439.088648	-5.240215	0.628610	0.000000	-0.427196	-55.399267	412.949527	4.112123	1.135089	0.000000	-0.575764	0.000000	1.863903	0.000000	0.000000	1.806884	0.000000
2.921000	108.260478	432.347598	-4.020170	0.627963	0.000000	-0.427223	-56.089356	421.107802	4.411147	1.134980	0.000000	-0.576217	0.000000	1.839380	0.000000	0.000000	1.771957	0.000000
2.922000	107.444964	425.578146	-2.795055	0.627378	0.000000	-0.427272	-56.812880	429.374172	4.715797	1.134740	0.000000	-0.576596	0.000000	1.814662	0.000000	0.000000	1.733220	0.000000
2.923000	106.590050	418.779121	-1.574253	0.626855	0.000000	-0.427344	-57.583042	437.731570	5.037341	1.134384	0.000000	-0.576900	0.000000	1.790567	0.000000	0.000000	1.691589	0.000000
2.924000	105.694703	411.949567	-0.367068	0.626394	0.000000	-0.427439	-58.411394	446.162851	5.386471	1.133925	0.000000	-0.577131	0.000000	1.767914	0.000000	0.000000	1.647995	0.000000
2.925000	104.758158	405.088793	0.817447	0.625993	0.000000	-0.427557	-59.307687	454.650884	5.772992	1.133375	0.000000	-0.577292	0.000000	1.747505	0.000000	0.000000	1.603371	0.000000
2.926000	103.779921	398.196419	1.970658	0.625652	0.000000	-0.427697	-60.279759	463.178627	6.205530	1.132751	0.000000	-0.577385	0.000000	1.730107	0.000000	0.000000	1.558636	0.000000
2.927000	102.759765	391.272420	3.084506	0.625367	0.000000	-0.427857	-61.333466	471.729176	6.691274	1.132067	0.000000	-0.577414	0.000000	1.716433	0.000000	0.000000	1.514679	0.000000
2.928000	101.697728	384.317158	4.151647	0.625134	0.000000	-0.428035	-62.472644	480.285814	7.235758	1.131338	0.000000	-0.577384	0.000000	1.707131	0.000000	0.000000	1.472344	0.000000
2.929000	100.594099	377.331416	5.165575	0.624949	0.000000	-0.428229	-63.699115	488.832034	7.842685	1.130578	0.000000	-0.577300	0.000000	1.702762	0.000000	0.000000	1.432421	0.000000
2.930000	99.449409	370.316420	6.120732	0.624807	0.000000	-0.428434	-65.012730	497.351568	8.513805	1.129800	0.000000	-0.577169	0.000000	1.703789	0.000000	0.000000	1.395631	0.000000
2.931000	98.264413	363.273862	7.012584	0.624702	0.000000	-0.428647	-66.411447	505.828403	9.248837	1.129015	0.000000	-0.576995	0.000000	1.710561	0.000000	0.000000	1.362620	0.000000
2.932000	97.040078	356.205906	7.837685	0.624628	0.000000	-0.428864	-67.891446	514.246798	10.045460	1.128235	0.000000	-0.576785	0.000000	1.723308	0.000000	0.000000	1.333949	0.000000
2.933000	95.777556	349.115193	8.593708	0.624579	0.000000	-0.429080	-69.447270	522.591303	10.899346	1.127469	0.000000	-0.576544	0.000000	1.742124	0.000000	0.000000	1.310090	0.000000
2.934000	94.478171	342.004836	9.279454	0.624546	0.000000	-0.429289	-71.071997	530.846786	11.804262	1.126725	0.000000	-0.576278	0.000000	1.766967	0.000000	0.000000	1.291421	0.000000
2.935000	93.143391	334.878403	9.894839	0.624524	0.000000	-0.429487	-72.757438	538.998459	12.752212	1.126008	0.000000	-0.575994	0.000000	1.797651	0.000000	0.000000	1.278225	0.000000
2.936000	91.774809	327.739892	10.440850	0.624503	0.000000	-0.429667	-74.494346	547.031922	13.733639	1.125324	0.000000	-0.575697	0.000000	1.833848	0.000000	0.000000	1.270691	0.000000
2.937000	90.374119	320.593702	10.919484	0.624476	0.000000	-0.429825	-76.272646	554.933214	14.737664	1.124675	0.000000	-0.575391	0.000000	1.875087	0.000000	0.000000	1.268913	0.000000
2.938000	88.943092	313.444584	11.333658	0.624434	0.000000	-0.429953	-78.081668	562.688869	15.752368	1.124064	0.000000	-0.575082	0.000000	1.920763	0.000000	0.000000	1.272900	0.000000
2.939000	87.483555	306.297593	11.687107	0.624368	0.000000	-0.430047	-79.910388	570.285994	16.765103	1.123490	0.000000	-0.574773	0.000000	1.970136	0.000000	0.000000	1.282573	0.000000
2.940000	85.997365	299.158030	11.984261	0.624267	0.000000	-0.430098	-81.747660	577.712348	17.762825	1.122952	0.000000	-0.574470	0.000000	2.022353	0.000000	0.000000	1.297777	0.000000
2.941000	84.486390	292.031374	12.230107	0.624122	0.000000	-0.430102	-83.582443	584.956434	18.732440	1.122450	0.000000	-0.574175	0.000000	2.076451	0.000000	0.000000	1.318290	0.000000
2.942000	82.952486	284.923218	12.430045	0.623919	0.000000	-0.430051	-85.404022	592.007600	19.661161	1.121980	0.000000	-0.573892	0.000000	2.131378	0.000000	0.000000	1.343827	0.000000
2.943000	81.397478	277.839199	12.589727	0.623647	0.000000	-0.429937	-87.202199	598.856141	20.536851	1.121539	0.000000	-0.573623	0.000000	2.186008	0.000000	0.000000	1.374055	0.000000
2.944000	79.823139	270.784927	12.714906	0.623291	0.000000	-0.429753	-88.967473	605.493407	21.348357	1.121124	0.000000	-0.573372	0.000000	2.239165	0.000000	0.000000	1.408597	0.000000
2.945000	78.231174	263.765925	12.811274	0.622835	0.000000	-0.429492	-90.691193	611.911912	22.085822	1.120731	0.000000	-0.573139	0.000000	2.289640	0.000000	0.000000	1.447048	0.000000
2.946000	76.623197	256.787568	12.884308	0.622264	0.000000	-0.429147	-92.365679	618.105432	22.740964	1.120354	0.000000	-0.572926	0.000000	2.336216	0.000000	0.000000	1.488981	0.000000
2.947000	75.000723	249.855042	12.939124	0.621562	0.000000	-0.428709	-93.984325	624.069108	23.307312	1.119991	0.000000	-0.572735	0.000000	2.377690	0.000000	0.000000	1.533960	0.000000
